v -8.777368 3.000695 0.905934
v -7.831027 2.498930 0.905934
v -5.509189 6.964323 0.905934
v -5.509189 6.964323 0.905934
v -7.831027 2.498930 0.905934
v -4.621354 6.180005 0.905934
v -4.621354 6.180005 -0.340470
v -4.621354 6.180005 0.905940
v -7.831027 2.498930 -0.340470
v -4.621354 6.180005 0.905940
v -7.831027 2.498930 0.905940
v -7.831027 2.498930 -0.340470
v -8.777368 3.000695 -0.340470
v -8.777368 3.000695 0.905940
v -5.509189 6.964323 -0.340470
v -8.777368 3.000695 0.905940
v -5.509189 6.964323 0.905940
v -5.509189 6.964323 -0.340470
v -8.777368 3.000695 -0.340470
v -5.509189 6.964323 -0.340470
v -7.831027 2.498930 -0.340470
v -5.509189 6.964323 -0.340470
v -4.621354 6.180005 -0.340470
v -7.831027 2.498930 -0.340470
v 7.619613 3.000695 0.905934
v 4.351434 6.964322 0.905934
v 6.673272 2.498931 0.905934
v 4.351434 6.964322 0.905934
v 3.463599 6.180005 0.905934
v 6.673272 2.498931 0.905934
v 3.463599 6.180005 -0.340470
v 6.673269 2.498928 -0.340470
v 3.463599 6.180005 0.905940
v 6.673269 2.498928 -0.340470
v 6.673269 2.498928 0.905940
v 3.463599 6.180005 0.905940
v 7.619612 3.000695 -0.340470
v 4.351434 6.964323 -0.340470
v 7.619613 3.000695 0.905940
v 4.351434 6.964323 -0.340470
v 4.351434 6.964323 0.905940
v 7.619613 3.000695 0.905940
v 7.619612 3.000695 -0.340470
v 6.673271 2.498930 -0.340470
v 4.351434 6.964323 -0.340470
v 4.351434 6.964323 -0.340470
v 6.673271 2.498930 -0.340470
v 3.463599 6.180005 -0.340470
vn -0.000000 -0.000000 1.000000
vn -0.000000 -0.000000 1.000000
vn -0.000000 -0.000000 1.000000
vn -0.000000 -0.000000 1.000000
vn -0.000000 -0.000000 1.000000
vn -0.000000 -0.000000 1.000000
vn 0.753719 -0.657197 0.000000
vn 0.753719 -0.657197 0.000000
vn 0.753719 -0.657197 0.000000
vn 0.753719 -0.657197 0.000000
vn 0.753719 -0.657197 0.000000
vn 0.753719 -0.657197 0.000000
vn -0.771547 0.636173 0.000000
vn -0.771547 0.636173 0.000000
vn -0.771547 0.636173 0.000000
vn -0.771547 0.636173 0.000000
vn -0.771547 0.636173 0.000000
vn -0.771547 0.636173 0.000000
vn 0.000000 0.000000 -1.000000
vn 0.000000 0.000000 -1.000000
vn 0.000000 0.000000 -1.000000
vn 0.000000 0.000000 -1.000000
vn 0.000000 0.000000 -1.000000
vn 0.000000 0.000000 -1.000000
vn 0.000000 -0.000000 1.000000
vn 0.000000 -0.000000 1.000000
vn 0.000000 -0.000000 1.000000
vn 0.000000 -0.000000 1.000000
vn 0.000000 -0.000000 1.000000
vn 0.000000 -0.000000 1.000000
vn -0.753719 -0.657196 0.000000
vn -0.753719 -0.657196 0.000000
vn -0.753719 -0.657196 0.000000
vn -0.753719 -0.657196 0.000000
vn -0.753719 -0.657196 0.000000
vn -0.753719 -0.657196 0.000000
vn 0.771547 0.636173 -0.000000
vn 0.771547 0.636173 -0.000000
vn 0.771547 0.636173 -0.000000
vn 0.771547 0.636173 -0.000000
vn 0.771547 0.636173 0.000000
vn 0.771547 0.636173 -0.000000
vn 0.000000 0.000000 -1.000000
vn 0.000000 0.000000 -1.000000
vn 0.000000 0.000000 -1.000000
vn 0.000000 0.000000 -1.000000
vn 0.000000 0.000000 -1.000000
vn -0.000000 -0.000000 -1.000000

f 1/0/1 2/0/2 3/0/3
f 4/0/4 5/0/5 6/0/6
f 7/0/7 8/0/8 9/0/9
f 10/0/10 11/0/11 12/0/12
f 13/0/13 14/0/14 15/0/15
f 16/0/16 17/0/17 18/0/18
f 19/0/19 20/0/20 21/0/21
f 22/0/22 23/0/23 24/0/24
f 25/0/25 26/0/26 27/0/27
f 28/0/28 29/0/29 30/0/30
f 31/0/31 32/0/32 33/0/33
f 34/0/34 35/0/35 36/0/36
f 37/0/37 38/0/38 39/0/39
f 40/0/40 41/0/41 42/0/42
f 43/0/43 44/0/44 45/0/45
f 46/0/46 47/0/47 48/0/48
